<svg xmlns="http://www.w3.org/2000/svg" version="1.0" viewBox="0 0 40 40" fill="white"><path d="M19.303.064c-.969.21-1.915.99-2.344 1.937-.517 1.188-.308 2.508.55 3.465.264.297.726.672 1.012.815l.518.264.066 1.133c.066 1.331.319 2.167.913 3.025.792 1.156 1.881 1.805 3.553 2.124 1.244.23 1.574.374 2.058.902.506.528.726 1.034.792 1.804.12 1.507-.693 2.619-2.333 3.169-.297.099-1.595.275-2.915.407-5.16.473-5.732.572-6.931 1.21-.715.385-1.64 1.353-1.959 2.035-.605 1.332-.572 2.74.088 4.093.638 1.298 1.827 2.19 3.29 2.443 1.32.23 1.826.429 2.354.89.793.694 1.09 1.376 1.145 2.586l.044 1.012-.584.297c-.715.353-.99.606-1.408 1.255-1.111 1.738-.319 4.125 1.618 4.852 2.112.792 4.367-.66 4.51-2.905.066-1.111-.23-1.86-1.023-2.585-.33-.297-.781-.606-.99-.672l-.385-.132v-.792c0-1.716-.484-2.948-1.551-3.971-.793-.76-1.706-1.189-3.004-1.43-1.09-.199-1.386-.32-1.903-.804-1.056-.979-1.188-2.882-.264-3.994.407-.484 1.408-1.023 2.211-1.188.33-.066 2.167-.275 4.07-.45 3.587-.33 4.06-.43 5.26-1.035.78-.396 1.628-1.287 2.046-2.156.32-.66.341-.804.341-1.87 0-1.057-.033-1.211-.34-1.871-.441-.935-1.288-1.86-2.07-2.233-.582-.287-.89-.375-2.288-.628-1.133-.22-2.123-1.122-2.464-2.288-.088-.275-.154-.88-.154-1.353v-.858l.627-.286c.715-.33 1.221-.826 1.595-1.574.341-.704.352-2.046.022-2.783C22.46.582 20.788-.244 19.303.064z"/><path d="M12.074 9.768c-.12.198.077 1.441.352 2.289.43 1.276 1.035 2.189 2.663 3.971 1.683 1.838 1.452 1.717 3.025 1.54l.639-.065-1.662-1.816c-.913-1-1.881-2.123-2.145-2.486-.583-.803-1.012-1.86-1.122-2.817l-.088-.693-.804-.022c-.429 0-.825.033-.858.1zM21.58 22.475c-.231.022-.418.077-.418.121s.825.969 1.826 2.058c1.144 1.243 1.97 2.233 2.223 2.695.429.77.77 1.882.78 2.553l.012.418h1.76v-.308c0-1.056-.506-2.64-1.21-3.807-.352-.572-.484-.726-2.344-2.75l-.979-1.057-.616.022c-.34.011-.814.033-1.034.055z"/></svg>